<?xml version="1.0" encoding="UTF-8"?>
<svg xmlns="http://www.w3.org/2000/svg" id="a" data-name="icons" width="65px" height="65px" viewBox="0 0 65 65">
  <g>
    <circle cx="25.5" cy="27.5" r="18.5" fill="#e7d1c4" stroke-width="0"/>
    <path d="m53.93,22.3c1.65-2.19.54-7.78-.93-9.43l-.4-.45c-.51-.57-1.39-.63-1.97-.11l-4.94,4.39-3.34.39c-1.57.45-3.07,1.3-4.35,2.44l-4.02,3.58c-2.06,1.84-2.08,5.19-.03,7.49l-.96,4.05c-3.29,3.1-8.27,7.49-10,8.87-5.4,4.29-5.76,8.93-5.18,12.6-2.75,1.33-8.15,2.78-13.59-.59-.87-.54-2.13-.42-2.81.28-.68.69-.52,1.69.35,2.23,3.08,1.91,6.26,2.61,9.21,2.61s5.52-.41,7.67-1.27c.2.54.35,1.65.35,1.65h28.5c1.38,0,2.5-.89,2.5-1.99s-1.12-1.99-2.5-1.99h-1.5l1-9.55,5-11.47-.48-9.76-.96-1.08,1.28-.07,2.1-2.79Z" fill="#fff" stroke-width="0"/>
    <path d="m30,44c2.76,0,5-2.24,5-5,0-1.74-.89-3.26-2.23-4.16-2.18,2.05-5.02,4.59-7.18,6.47.84,1.59,2.49,2.69,4.41,2.69Z" fill="#6b4f5b" stroke-width="0"/>
    <circle cx="45" cy="37" r="2" fill="#6b4f5b" stroke-width="0"/>
    <circle cx="28" cy="56" r="2" fill="#6b4f5b" stroke-width="0"/>
  </g>
  <path d="m54.73,22.9c1.94-2.57.78-8.73-.98-10.7l-.4-.46c-.42-.48-1.01-.76-1.65-.8-.64-.04-1.25.18-1.73.6l-4.7,4.18-3.02.35c-.05,0-.11.02-.16.03-1.71.49-3.35,1.41-4.74,2.65l-4.02,3.58c-1.21,1.08-1.88,2.61-1.89,4.31,0,1.49.5,2.95,1.44,4.17l-.78,3.27c-3.3,3.09-8.04,7.27-9.72,8.61-4.37,3.48-6.23,7.67-5.65,12.78-2.33.97-7.06,2.21-11.97-.83-1.27-.79-3.05-.6-4.05.43-.52.54-.78,1.25-.69,1.95.09.74.54,1.4,1.23,1.83,2.96,1.83,6.23,2.76,9.74,2.76,2.62,0,4.96-.32,6.95-.95.03.17.05.34.07.46.07.5.49.87.99.87h28.5c1.93,0,3.5-1.34,3.5-2.99s-1.57-2.99-3.5-2.99h-.39l.87-8.29,4.94-11.33c.06-.14.09-.29.08-.45l-.48-9.76c0-.11-.03-.22-.07-.32.07-.05.13-.11.18-.18l2.1-2.79Zm-21.92,13.27c.75.74,1.19,1.75,1.19,2.83,0,2.21-1.79,4-4,4-1.22,0-2.35-.56-3.1-1.51,1.85-1.62,4.05-3.59,5.92-5.32Zm18.5-12.06l-.81.04c-.38.02-.72.26-.87.61s-.08.76.18,1.05l.73.82.46,9.18-4.91,11.25c-.04.09-.07.19-.08.3l-1,9.55c-.03.28.06.56.25.77.19.21.46.33.74.33h1.5c.88,0,1.5.52,1.5.99s-.62.99-1.5.99h-3.85c.22-.46.35-.96.35-1.5,0-1.93-1.57-3.5-3.5-3.5h-3.77c.17-.65.27-1.32.27-2,0-4.41-3.54-8-7.9-8-2.22,0-4.35.96-5.85,2.63-.37.41-.33,1.04.08,1.41.41.37,1.04.33,1.41-.08,1.12-1.25,2.7-1.96,4.36-1.96,3.25,0,5.9,2.69,5.9,6,0,1.24-.37,2.42-1.06,3.43-.31.46-.2,1.08.26,1.39.17.12.37.18.57.18.32,0,.63-.15.82-.43.13-.19.23-.39.34-.58.03,0,.05.02.08.02h4.5c.83,0,1.5.67,1.5,1.5s-.67,1.5-1.5,1.5h-20.65c-.07-.34-.15-.71-.26-.99-.09-.25-.29-.46-.53-.57-.25-.11-.53-.12-.78-.01-1.96.78-4.48,1.2-7.3,1.2-3.13,0-6.05-.83-8.69-2.46-.17-.11-.28-.24-.3-.37-.01-.1.03-.21.14-.31.35-.36,1.1-.42,1.56-.13,6.28,3.89,12.27,1.74,14.55.64.4-.19.62-.62.55-1.06-.47-2.99-.48-7.45,4.82-11.67.42-.33,1.03-.85,1.76-1.47,1.13,1.39,2.8,2.2,4.61,2.2,3.31,0,6-2.69,6-6,0-1.7-.72-3.29-1.96-4.42l.33-1.4c1.11,1.13,2.77,1.83,4.63,1.83,3.31,0,6-2.24,6-5v-4c0-.55-.45-1-1-1s-1,.45-1,1v4c0,1.65-1.79,3-4,3-1.81,0-3.4-.92-3.87-2.23-.04-.12-.11-.22-.19-.31-.03-.2-.1-.39-.24-.54-.83-.93-1.28-2.08-1.27-3.25,0-1.13.44-2.13,1.22-2.83l4.02-3.58c1.15-1.02,2.49-1.78,3.89-2.2l3.25-.38c.2-.02.4-.11.55-.25l4.94-4.39c.16-.14.41-.13.55.03l.4.45c1.23,1.38,2.17,6.46.88,8.17l-1.82,2.42Z" fill="#4c241d" stroke-width="0"/>
  <circle cx="25.5" cy="18.5" r="1.5" fill="#4c241d" stroke-width="0"/>
  <path d="m57.49,46h0c.93,0,1.81-.36,2.47-1.02.66-.66,1.03-1.54,1.03-2.47,0-.94-.36-1.81-1.02-2.48-.66-.66-1.54-1.03-2.47-1.03h0c-.93,0-1.81.36-2.47,1.02-.66.66-1.03,1.54-1.03,2.47,0,.94.36,1.81,1.02,2.48.66.66,1.54,1.03,2.47,1.03Zm-1.05-4.56c.28-.28.66-.44,1.06-.44h0c.4,0,.78.16,1.06.44.28.28.44.66.44,1.06,0,.4-.16.78-.44,1.06-.28.28-.66.44-1.06.44h0c-.4,0-.78-.16-1.06-.44-.28-.28-.44-.66-.44-1.06,0-.4.16-.78.44-1.06Z" fill="#4c241d" stroke-width="0"/>
  <path d="m14.29,31.7c.2.2.45.29.71.29s.51-.1.71-.29l1.29-1.29,1.29,1.29c.2.2.45.29.71.29s.51-.1.71-.29c.39-.39.39-1.02,0-1.41l-1.29-1.29,1.29-1.29c.39-.39.39-1.02,0-1.41-.39-.39-1.02-.39-1.41,0l-1.29,1.29-1.29-1.29c-.39-.39-1.02-.39-1.41,0-.39.39-.39,1.02,0,1.41l1.29,1.29-1.29,1.29c-.39.39-.39,1.02,0,1.41Z" fill="#4c241d" stroke-width="0"/>
  <circle cx="47" cy="20" r="1" fill="#4c241d" stroke-width="0"/>
  <path d="m58.71,11.71l3-3c.39-.39.39-1.02,0-1.41s-1.02-.39-1.41,0l-3,3c-.39.39-.39,1.02,0,1.41.2.2.45.29.71.29s.51-.1.71-.29Z" fill="#4c241d" stroke-width="0"/>
  <path d="m56,9v-4c0-.55-.45-1-1-1s-1,.45-1,1v4c0,.55.45,1,1,1s1-.45,1-1Z" fill="#4c241d" stroke-width="0"/>
  <path d="m63,13h-4c-.55,0-1,.45-1,1s.45,1,1,1h4c.55,0,1-.45,1-1s-.45-1-1-1Z" fill="#4c241d" stroke-width="0"/>
  <path d="m45,34c-1.65,0-3,1.35-3,3s1.35,3,3,3,3-1.35,3-3-1.35-3-3-3Zm0,4c-.55,0-1-.45-1-1s.45-1,1-1,1,.45,1,1-.45,1-1,1Z" fill="#4c241d" stroke-width="0"/>
  <path d="m28,59c1.65,0,3-1.35,3-3s-1.35-3-3-3-3,1.35-3,3,1.35,3,3,3Zm0-4c.55,0,1,.45,1,1s-.45,1-1,1-1-.45-1-1,.45-1,1-1Z" fill="#4c241d" stroke-width="0"/>
  <circle cx="40.5" cy="47.5" r="1.5" fill="#4c241d" stroke-width="0"/>
</svg>
