<?xml version="1.0" encoding="UTF-8"?>
<svg xmlns="http://www.w3.org/2000/svg" id="a" width="65px" height="65px" viewBox="0 0 65 65"><circle cx="38.5" cy="33.5" r="21.5" fill="#e5efef"/><path d="m27.62,11h4.55c6.47,0,11.72,5.25,11.72,11.72v28.28H15.9v-28.28c0-6.47,5.25-11.72,11.72-11.72Z" fill="#ffce56"/><path d="m40.9,27.26h0c0-4.01-3.25-7.26-7.26-7.26h-3.74l-5-2c-4.01,0-6,5.25-6,9.26h0c-1.05.48-1.74,1.59-1.56,2.82l.23,1.61c.17,1.21,1.14,2.13,2.33,2.28v5.45c0,1,.44,1.95,1.2,2.6l5.8,5.97h6l5.8-5.97c.76-.65,1.2-1.6,1.2-2.6v-5.45c1.19-.15,2.16-1.07,2.33-2.28l.23-1.61c.18-1.23-.51-2.35-1.56-2.82Z" fill="#ffded5"/><path d="m49,58v-.72c0-3.22-1.87-6.15-4.79-7.52l-14.48-6.76-14.03,6.74c-2.87,1.38-4.7,4.29-4.7,7.48v.78" fill="#fff"/><path d="m32,41h-4l-6-6h-2.1v4.42c0,1,.44,1.95,1.2,2.6l5.8,5.97h6l5.8-5.97c.76-.65,1.2-1.6,1.2-2.6v-4.42h-2.9l-5,6Z" fill="#ffce56"/><path d="m44.21,49.76l-5.14-2.4-9.07,10.64h9l5.86-7.88c-.21-.12-.42-.25-.64-.36Z" fill="#9dc1e4"/><circle cx="1" cy="27" r="1" fill="#4c241d"/><circle cx="53" cy="47" r="1" fill="#4c241d"/><path d="m8.71,33.29c-.39-.39-1.02-.39-1.41,0l-.79.79-.79-.79c-.39-.39-1.02-.39-1.41,0s-.39,1.02,0,1.41l.79.79-.79.79c-.39.39-.39,1.02,0,1.41.2.2.45.29.71.29s.51-.1.71-.29l.79-.79.79.79c.2.2.45.29.71.29s.51-.1.71-.29c.39-.39.39-1.02,0-1.41l-.79-.79.79-.79c.39-.39.39-1.02,0-1.41Z" fill="#4c241d"/><path d="m60.5,35c-1.93,0-3.5,1.57-3.5,3.5s1.57,3.5,3.5,3.5,3.5-1.57,3.5-3.5-1.57-3.5-3.5-3.5Zm0,5c-.83,0-1.5-.67-1.5-1.5s.67-1.5,1.5-1.5,1.5.67,1.5,1.5-.67,1.5-1.5,1.5Z" fill="#4c241d"/><circle cx="35" cy="30" r="1" fill="#4c241d"/><circle cx="25" cy="30" r="1" fill="#4c241d"/><path d="m37,26h-4c-.55,0-1,.45-1,1s.45,1,1,1h4c.55,0,1-.45,1-1s-.45-1-1-1Z" fill="#4c241d"/><path d="m27,26h-4c-.55,0-1,.45-1,1s.45,1,1,1h4c.55,0,1-.45,1-1s-.45-1-1-1Z" fill="#4c241d"/><path d="m45,49.04v-26.32c0-2.59-.78-5-2.11-7.01,3.4-.9,5.72-2.24,5.72-4.08,0-3.75-9.59-5.46-18.51-5.46s-18.51,1.71-18.51,5.46c0,1.81,2.24,3.14,5.55,4.04-1.35,2.02-2.14,4.45-2.14,7.05v26.29c-3.04,1.6-5,4.77-5,8.2v.78c0,.55.45,1,1,1s1-.45,1-1v-.78c0-2.79,1.64-5.37,4.17-6.58l8.2-3.91,1.91,1.96c.19.19.45.3.72.3h6c.27,0,.53-.11.72-.3l1.86-1.91,1.99.94-8.22,9.63c-.25.3-.31.71-.15,1.07.16.35.52.58.91.58h9c.32,0,.61-.15.8-.4l5.26-7.08c1.75,1.36,2.83,3.48,2.83,5.76v.72c0,.55.45,1,1,1s1-.45,1-1v-.72c0-3.47-1.96-6.65-5-8.24ZM13.59,11.63c0-1.04,5.62-3.46,16.51-3.46s16.51,2.43,16.51,3.46c0,.57-1.73,1.57-5.11,2.35-2.32-2.45-5.59-3.98-9.22-3.98h-4.55c-3.61,0-6.87,1.52-9.18,3.94-3.27-.77-4.95-1.75-4.95-2.31Zm25.5,2.81c-2.42.39-5.42.65-8.99.65s-6.69-.28-9.14-.68c1.85-1.51,4.2-2.42,6.77-2.42h4.55c2.58,0,4.95.92,6.81,2.44Zm-19.82,1.71c3.23.63,7.09.94,10.83.94s7.47-.3,10.66-.9c1.4,1.81,2.24,4.07,2.24,6.53v4.98c-.26-.41-.61-.76-1.02-1.04-.31-4.28-3.88-7.66-8.24-7.66h-3.55l-4.82-1.93c-.12-.05-.24-.07-.37-.07-4.61,0-6.8,5.47-6.99,9.67-.41.28-.75.64-1.01,1.04v-4.98c0-2.47.85-4.75,2.26-6.56Zm20.61,16.82c-.5.06-.87.49-.87.99v.03h-1.9c-.3,0-.58.13-.77.36l-2.17,2.6-1.72-.86c-.14-.07-.29-.11-.45-.11h-4c-.16,0-.31.04-.45.11l-1.95.98-2.79-2.79c-.19-.19-.44-.29-.71-.29h-1.1v-.03c0-.5-.38-.93-.87-.99-.76-.1-1.36-.69-1.47-1.43l-.23-1.61c-.11-.74.29-1.46.98-1.77.36-.16.59-.52.59-.91,0-3.27,1.53-8.08,4.82-8.25l4.81,1.92c.12.05.24.07.37.07h3.74c3.45,0,6.26,2.81,6.26,6.26,0,.39.23.75.59.91.69.31,1.09,1.02.98,1.77l-.23,1.61c-.11.75-.71,1.34-1.47,1.43Zm-7.02,5.57l-1.21,1.46h-3.12l-1.43-1.43,1.15-.57h3.53l1.09.54Zm-15.85,9.49v-15.16c.4.85,1.12,1.52,2,1.87v4.68c0,1.29.56,2.52,1.48,3.3l2.42,2.49-5.9,2.81Zm15.58-1.03h-5.15l-5.58-5.73c-.54-.46-.85-1.13-.85-1.84v-3.42h.69l5.71,5.71c.19.19.44.29.71.29h4c.3,0,.58-.13.77-.36l4.7-5.64h1.43v3.42c0,.71-.31,1.38-.91,1.91l-5.51,5.67Zm6.88-4.21c.98-.84,1.55-2.07,1.55-3.36v-4.68c.88-.34,1.6-1.02,2-1.87v15.2l-5.96-2.8,2.41-2.48Zm-.85,14.21h-6.33l7.16-8.4,4.01,1.89-4.84,6.51Z" fill="#4c241d"/></svg>
