<?xml version="1.0" encoding="UTF-8"?>
<svg xmlns="http://www.w3.org/2000/svg" id="a" width="65px" height="65px" viewBox="0 0 65 65"><circle cx="27.5" cy="32.5" r="21.5" fill="#a9f8f6"/><path d="m38,24s-1-3,2-5,6,2,11-3l2,1s-2,10-12,9.72" fill="#fc8c29"/><path d="m27,24s1-3-2-5-6,2-11-3l-2,1s2,10,12,9.72" fill="#fc8c29"/><circle cx="37.5" cy="27.5" r="3.5" fill="#bf7e68"/><circle cx="27.5" cy="27.5" r="3.5" fill="#bf7e68"/><polygon points="36 34 29 34 31 20 34 20 36 34" fill="#fc8c29"/><path d="m33.07,63h-1.13c-7.02,0-12.59-5.91-12.18-12.91l.57-9.61c.38-6.45,5.72-11.48,12.18-11.48h0c6.46,0,11.8,5.03,12.18,11.48l.57,9.61c.41,7.01-5.16,12.91-12.18,12.91Z" fill="#fc8c29"/><path d="m32.83,63h-.66c-4.12,0-7.4-3.65-7.16-7.98l.33-5.93c.22-3.98,3.36-7.09,7.16-7.09h0c3.8,0,6.93,3.11,7.16,7.09l.33,5.93c.24,4.33-3.03,7.98-7.16,7.98Z" fill="#bf7e68"/><path d="m32.67,53h-.35c-2.16,0-3.87-1.91-3.75-4.18l.17-3.11c.12-2.09,1.76-3.71,3.75-3.71h0c1.99,0,3.63,1.63,3.75,3.71l.17,3.11c.13,2.27-1.59,4.18-3.75,4.18Z" fill="#fc8c29"/><circle cx="56" cy="28" r="1" fill="#4c241d"/><circle cx="9" cy="43" r="1" fill="#4c241d"/><path d="m43.71.29c-.39-.39-1.02-.39-1.41,0l-1.14,1.14-1.14-1.14c-.39-.39-1.02-.39-1.41,0s-.39,1.02,0,1.41l1.14,1.14-1.14,1.14c-.39.39-.39,1.02,0,1.41.2.2.45.29.71.29s.51-.1.71-.29l1.14-1.14,1.14,1.14c.2.2.45.29.71.29s.51-.1.71-.29c.39-.39.39-1.02,0-1.41l-1.14-1.14,1.14-1.14c.39-.39.39-1.02,0-1.41Z" fill="#4c241d"/><path d="m7.5,29c1.93,0,3.5-1.57,3.5-3.5s-1.57-3.5-3.5-3.5-3.5,1.57-3.5,3.5,1.57,3.5,3.5,3.5Zm0-5c.83,0,1.5.67,1.5,1.5s-.67,1.5-1.5,1.5-1.5-.67-1.5-1.5.67-1.5,1.5-1.5Z" fill="#4c241d"/><path d="m62.55,37.11l-3.49,1.75-10.52-6.7c-.3-.19-.67-.21-.98-.05l-3.96,1.98c-.81-1.27-1.83-2.39-3.01-3.31.85-.79,1.35-1.89,1.4-3.08,9.39-.38,11.77-9.51,11.98-10.43,3.13-9.45-2.04-14.75-2.26-14.98-.29-.29-.72-.37-1.09-.22-.37.15-.62.52-.62.92v12.58c-2.53,2.39-4.32,2.17-6.22,1.94-1.4-.17-2.85-.34-4.34.65-2.15,1.43-2.66,3.44-2.61,4.9-.47.07-.91.21-1.33.42l-.52-3.63c-.07-.49-.49-.86-.99-.86h-3c-.5,0-.92.37-.99.86l-.52,3.63c-.42-.21-.86-.35-1.33-.42.06-1.46-.46-3.46-2.61-4.9-1.49-.99-2.94-.82-4.34-.65-1.89.23-3.68.44-6.22-1.94V3c0-.4-.24-.77-.62-.92-.38-.16-.8-.07-1.09.22-.22.22-5.38,5.53-2.26,14.98.21.91,2.58,10.05,11.98,10.43.05,1.19.56,2.29,1.4,3.08-1.18.92-2.2,2.04-3.01,3.31l-3.96-1.98c-.31-.16-.69-.14-.98.05l-10.52,6.7-3.49-1.75c-.5-.25-1.1-.05-1.34.45s-.05,1.09.45,1.34l4,2c.14.07.29.11.45.11.19,0,.37-.05.54-.16l10.52-6.7,3.39,1.7c-.63,1.41-1.03,2.95-1.12,4.58l-.26,4.43-3.82-.75c-.44-.08-.88.13-1.08.52l-6.04,11.75c-.19.36-.13.8.13,1.11l2.98,3.46c.2.23.48.35.76.35.23,0,.46-.08.65-.24.42-.36.47-.99.1-1.41l-2.54-2.95,5.38-10.48,3.35.66-.19,3.17c-.22,3.67,1.05,7.16,3.57,9.83,2.52,2.67,5.93,4.14,9.6,4.14h1.13c3.67,0,7.08-1.47,9.6-4.14,2.52-2.67,3.79-6.16,3.57-9.83l-.19-3.21,3.11-.61,5.38,10.48-2.54,2.95c-.36.42-.31,1.05.1,1.41.19.16.42.24.65.24.28,0,.56-.12.76-.35l2.98-3.46c.27-.31.32-.75.13-1.11l-6.04-11.75c-.2-.4-.65-.61-1.08-.52l-3.58.71-.26-4.38c-.1-1.63-.49-3.17-1.12-4.58l3.39-1.7,10.52,6.7c.16.1.35.16.54.16.15,0,.31-.04.45-.11l4-2c.49-.25.69-.85.45-1.34-.25-.49-.85-.69-1.34-.45Zm-10.55-30.65c.78,1.85,1.36,4.62.59,8.22l-.59-.3v-7.92Zm-11.45,13.37c.83-.56,1.64-.49,2.99-.33,2.13.26,4.79.58,8.16-2.8.05-.05.08-.12.12-.18l.24.12s0,.02,0,.03c-.01.04-.02.08-.03.12-.07.37-1.91,8.76-10.4,8.9-.52-1.18-1.53-2.08-2.76-2.47-.1-.76-.02-2.25,1.7-3.4Zm-3.05,5.17c1.38,0,2.5,1.12,2.5,2.5,0,.88-.46,1.66-1.2,2.11-.81-.44-1.67-.81-2.57-1.08l-.41-2.88c.46-.42,1.05-.66,1.68-.66Zm-5.63-4h1.27l1.02,7.12c-.54-.07-1.09-.12-1.65-.12s-1.11.05-1.65.12l1.02-7.12Zm-4.37,4c.63,0,1.22.24,1.68.66l-.41,2.88c-.9.27-1.76.63-2.57,1.07-.74-.45-1.2-1.24-1.2-2.11,0-1.38,1.12-2.5,2.5-2.5Zm-14.5-9.62l-.37.18c-1.08-4.04-.47-7.11.37-9.11v8.92Zm10.38,10.32c-7.13-.13-9.57-6.07-10.2-8.17l.65-.32c3.13,2.84,5.61,2.54,7.63,2.3,1.35-.16,2.16-.23,2.99.33,1.72,1.15,1.79,2.64,1.7,3.4-1.24.39-2.25,1.29-2.76,2.47Zm9.12,4.3c5.14,0,9.51,3.49,10.8,8.28-2.77,1.73-6.67,2.72-10.8,2.72s-8.03-.99-10.8-2.72c1.29-4.79,5.67-8.28,10.8-8.28Zm2.92,18.88c.05.85-.25,1.67-.81,2.27-.52.55-1.21.85-1.94.85h-.35c-.73,0-1.42-.3-1.94-.85-.56-.6-.86-1.42-.81-2.27l.17-3.11c.09-1.55,1.29-2.77,2.75-2.77s2.66,1.22,2.75,2.77l.17,3.11Zm-11.63,9.61c-2.14-2.27-3.21-5.23-3.03-8.34l.56-9.61s.01-.1.02-.15c1.85,1.02,4.06,1.76,6.45,2.19-1.96,1.45-3.29,3.78-3.44,6.46l-.33,5.93c-.09,1.63.28,3.24,1.03,4.64-.44-.35-.86-.71-1.25-1.13Zm13.4,1.61c-1.16,1.23-2.71,1.91-4.36,1.91h-.66c-1.65,0-3.19-.68-4.36-1.91-1.25-1.32-1.9-3.15-1.8-5.01l.33-5.93c.08-1.47.62-2.8,1.46-3.84-.02.12-.05.23-.05.35l-.17,3.11c-.08,1.39.42,2.76,1.36,3.76.9.95,2.1,1.48,3.39,1.48h.35c1.29,0,2.49-.52,3.39-1.48.94-.99,1.44-2.36,1.36-3.76l-.17-3.11c0-.12-.04-.23-.05-.35.84,1.05,1.38,2.37,1.46,3.84l.33,5.93c.1,1.86-.55,3.69-1.8,5.01Zm4.02-1.61c-.39.41-.82.78-1.25,1.13.75-1.4,1.12-3.01,1.03-4.64l-.33-5.93c-.15-2.68-1.48-5-3.44-6.46,2.39-.43,4.6-1.17,6.45-2.19,0,.05.01.1.02.15l.56,9.61c.18,3.11-.89,6.07-3.03,8.34Z" fill="#4c241d"/></svg>
