<?xml version="1.0" encoding="UTF-8"?>
<svg xmlns="http://www.w3.org/2000/svg" id="a" width="65px" height="65px" viewBox="0 0 65 65"><circle cx="37" cy="25" r="21" fill="#ffe8dc"/><path d="m51.73,63.11c.16-1.01.27-2.03.27-3.08,0-10.76-8.95-19.47-20-19.47s-20,8.72-20,19.47c0,1.05.11,2.08.27,3.08" fill="#bf7e68"/><circle cx="48.5" cy="19.5" r="5.5" fill="#bf7e68"/><circle cx="15.5" cy="19.5" r="5.5" fill="#bf7e68"/><path d="m47.73,48.14l-15.73,7.86-15.73-7.86c-2.55-1.27-3.99-4.04-3.57-6.86l1.99-13.45c.75-5.07,5.1-8.83,10.23-8.83h14.16c5.13,0,9.48,3.75,10.23,8.83l1.99,13.45c.42,2.82-1.02,5.59-3.57,6.86Z" fill="#bf7e68"/><path d="m14.69,27.83l-.91,6.17h36.44l-.91-6.17c-.15-1-.44-1.95-.85-2.83H15.54c-.41.88-.7,1.83-.85,2.83Z" fill="#a9ba5a"/><path d="m40,39.98v1.33c0,2.04-1.65,3.69-3.69,3.69h-8.61c-2.04,0-3.69-1.65-3.69-3.69v-1.33c0-3.88,1.29-7.64,3.67-10.7l2.71-3.49c.39-.5.98-.79,1.61-.79h0c.63,0,1.23.29,1.61.79l2.71,3.49c2.38,3.06,3.67,6.83,3.67,10.7Z" fill="#fff"/><path d="m33.19,35h-2.39c-1.08,0-2.04-.69-2.38-1.71h0c-.21-.63.26-1.29.93-1.29h5.29c.67,0,1.14.65.93,1.29h0c-.34,1.02-1.3,1.71-2.38,1.71Z" fill="#6b4f5b"/><polyline points="26 21 29 18 30 19 33 17 34 20" fill="#bf7e68"/><path d="m53.16,27.89c-1.55,1.04-2.5,2.65-2.77,4.4,1.96.78,4.21.64,6.04-.59,1.55-1.04,2.5-2.65,2.77-4.4-1.96-.78-4.21-.64-6.04.59Z" fill="#a9ba5a"/><path d="m56.38,31.66c-2.45-.27-4.78.55-6.54,2.09,1.31,2.45,3.7,4.23,6.6,4.55,2.45.27,4.78-.55,6.54-2.09-1.31-2.45-3.7-4.23-6.6-4.55Z" fill="#a9ba5a"/><path d="m26.6,40.06l3,1c.26.09.55.06.79-.07l1.59-.85,1.44.83c.15.09.33.14.5.14.11,0,.21-.02.32-.05l3-1c.52-.17.81-.74.63-1.27-.17-.52-.74-.81-1.27-.63l-2.57.86-1.03-.6v-2.42h.19c1.51,0,2.85-.96,3.33-2.4.2-.6.1-1.27-.27-1.78-.37-.51-.97-.82-1.6-.82h-5.29c-.63,0-1.23.31-1.6.82-.37.51-.47,1.18-.27,1.78.48,1.43,1.82,2.4,3.33,2.4h.19v2.4l-1.17.63-2.59-.86c-.52-.18-1.09.11-1.27.63-.17.52.11,1.09.63,1.27Zm2.75-7.06l5.27-.03c-.21.62-.78,1.03-1.43,1.03h-2.39c-.65,0-1.22-.41-1.45-1Z" fill="#4c241d"/><path d="m43,59v4c0,.55.45,1,1,1s1-.45,1-1v-4c0-.55-.45-1-1-1s-1,.45-1,1Z" fill="#4c241d"/><path d="m19,59v4c0,.55.45,1,1,1s1-.45,1-1v-4c0-.55-.45-1-1-1s-1,.45-1,1Z" fill="#4c241d"/><path d="m42.29,27.29l-1.71,1.71h-.59c-.55,0-1,.45-1,1s.45,1,1,1h1c.27,0,.52-.11.71-.29l2-2c.39-.39.39-1.02,0-1.41s-1.02-.39-1.41,0Z" fill="#4c241d"/><path d="m24,29h-.59l-1.71-1.71c-.39-.39-1.02-.39-1.41,0s-.39,1.02,0,1.41l2,2c.19.19.44.29.71.29h1c.55,0,1-.45,1-1s-.45-1-1-1Z" fill="#4c241d"/><path d="m59.57,26.38c-2.34-.93-4.94-.67-6.97.69-.85.57-1.55,1.29-2.08,2.12l-.22-1.5c-.09-.63-.24-1.24-.44-1.82,2.93-.63,5.14-3.24,5.14-6.35,0-3.58-2.92-6.5-6.5-6.5-3.21,0-5.88,2.35-6.4,5.42-.97-.27-1.98-.42-3.02-.42h-2.69l-.44-1.32c-.1-.3-.33-.53-.62-.63-.29-.1-.62-.06-.88.11l-2.32,1.55-.42-.42c-.39-.39-1.02-.39-1.41,0l-.71.71h-4.66c-1.04,0-2.05.15-3.02.42-.52-3.07-3.19-5.42-6.4-5.42-3.58,0-6.5,2.92-6.5,6.5,0,3.12,2.21,5.73,5.14,6.35-.19.59-.34,1.2-.44,1.82l-1.99,13.45c-.42,2.83.78,5.6,3.04,7.24-2.44,3.41-3.75,7.38-3.75,11.57,0,1,.09,2.05.29,3.22.08.49.5.84.99.84.05,0,.11,0,.16-.01.54-.09.91-.6.82-1.15-.18-1.06-.26-2.01-.26-2.9,0-3.83,1.21-7.47,3.49-10.57l15.06,7.53c.14.07.29.11.45.11s.31-.04.45-.11l15.06-7.53c2.28,3.1,3.5,6.74,3.5,10.57,0,.89-.09,1.83-.26,2.9-.09.54.28,1.06.82,1.15.06,0,.11.01.16.01.48,0,.9-.35.99-.84.19-1.17.29-2.23.29-3.22,0-4.19-1.3-8.16-3.75-11.57,2.26-1.64,3.46-4.41,3.04-7.24l-.54-3.67c1.33,1,2.9,1.65,4.57,1.84.35.04.71.06,1.06.06,2.28,0,4.47-.83,6.26-2.38.35-.31.44-.81.23-1.23-1.17-2.19-3.09-3.81-5.33-4.6.87-1.04,1.45-2.3,1.66-3.69.07-.46-.19-.91-.62-1.08Zm-5.86,2.35c1.25-.84,2.82-1.1,4.31-.75-.33,1.07-.97,1.99-1.84,2.67-1.57-.12-3.12.14-4.54.77.39-1.1,1.1-2.04,2.07-2.69Zm-16.6-.06l-2.07-2.67h12.74c.24.63.43,1.28.53,1.97l.74,5.03h-9.46c-.63-1.54-1.46-3.01-2.49-4.33Zm-12.73,4.33h-9.46l.74-5.03c.1-.69.29-1.34.53-1.97h12.74l-2.07,2.67c-1.03,1.33-1.86,2.79-2.49,4.33Zm.61,6.98c0-3.64,1.23-7.22,3.46-10.09l2.71-3.49c.2-.25.5-.4.82-.4s.63.15.82.4l2.71,3.49c2.23,2.87,3.46,6.45,3.46,10.09v1.33c0,1.49-1.21,2.69-2.69,2.69h-8.61c-1.49,0-2.69-1.21-2.69-2.69v-1.33Zm23.5-24.98c2.48,0,4.5,2.02,4.5,4.5,0,2.3-1.74,4.18-3.96,4.45-.29-.53-.62-1.02-.98-1.49.26-1.4,1.48-2.45,2.94-2.45.55,0,1-.45,1-1s-.45-1-1-1c-1.95,0-3.66,1.14-4.49,2.8-.75-.65-1.58-1.2-2.47-1.64.18-2.32,2.1-4.16,4.47-4.16Zm-20.91,5l-.29.29c-.39.39-.39,1.02,0,1.41.2.2.45.29.71.29s.51-.1.71-.29l2.29-2.29.29.29c.34.34.87.39,1.26.12l1.91-1.27.59,1.76c.17.52.74.81,1.27.63.42-.14.67-.53.67-.95h2.09c3.11,0,5.93,1.57,7.64,4h-29.44c1.71-2.43,4.53-4,7.64-4h2.66Zm-16.59-.5c0-2.48,2.02-4.5,4.5-4.5s4.29,1.84,4.47,4.16c-.89.44-1.73.99-2.48,1.65-.82-1.66-2.54-2.81-4.49-2.81-.55,0-1,.45-1,1s.45,1,1,1c1.46,0,2.68,1.06,2.94,2.46-.36.47-.69.96-.98,1.48-2.23-.27-3.96-2.15-3.96-4.45Zm36.28,27.74l-15.28,7.64-15.28-7.64c-2.17-1.08-3.39-3.42-3.03-5.82l.95-6.42h9.06c-.46,1.62-.7,3.29-.7,4.98v1.33c0,2.59,2.11,4.69,4.69,4.69h8.61c2.59,0,4.69-2.11,4.69-4.69v-1.33c0-1.69-.25-3.36-.7-4.98h9.06l.95,6.42c.35,2.4-.86,4.74-3.03,5.82Zm14.39-11.27c-1.51,1.06-3.3,1.53-5.12,1.33-2.12-.24-4.03-1.4-5.29-3.17l-.03-.2c1.5-1.03,3.25-1.48,5.04-1.28,2.18.24,4.14,1.46,5.4,3.32Z" fill="#4c241d"/><circle cx="1" cy="34" r="1" fill="#4c241d"/><path d="m26.29,11.71c.2.2.45.29.71.29s.51-.1.71-.29l.79-.79.79.79c.2.2.45.29.71.29s.51-.1.71-.29c.39-.39.39-1.02,0-1.41l-.79-.79.79-.79c.39-.39.39-1.02,0-1.41s-1.02-.39-1.41,0l-.79.79-.79-.79c-.39-.39-1.02-.39-1.41,0s-.39,1.02,0,1.41l.79.79-.79.79c-.39.39-.39,1.02,0,1.41Z" fill="#4c241d"/><path d="m61,43c-1.65,0-3,1.35-3,3s1.35,3,3,3,3-1.35,3-3-1.35-3-3-3Zm0,4c-.55,0-1-.45-1-1s.45-1,1-1,1,.45,1,1-.45,1-1,1Z" fill="#4c241d"/><circle cx="56" cy="53" r="1" fill="#4c241d"/></svg>
